# Blender v3.2.0 OBJ File: ''
# www.blender.org
mtllib coin.mtl
o Cube_Cube.001
v -0.171579 -1.000000 0.404836
v -0.171579 -0.404836 1.000000
v -0.171579 0.404836 1.000000
v -0.171579 1.000000 0.404836
v -0.171579 -0.404836 -1.000000
v -0.171579 -1.000000 -0.404836
v -0.171579 1.000000 -0.404836
v -0.171579 0.404836 -1.000000
v 0.171579 -0.404836 1.000000
v 0.171579 -1.000000 0.404836
v 0.171579 1.000000 0.404836
v 0.171579 0.404836 1.000000
v 0.171579 -1.000000 -0.404836
v 0.171579 -0.404836 -1.000000
v 0.171579 0.404836 -1.000000
v 0.171579 1.000000 -0.404836
v 0.135152 -0.318887 -0.787695
v 0.135152 -0.787695 -0.318887
v -0.135152 -0.787695 -0.318887
v -0.135152 -0.318887 -0.787695
v -0.135152 0.318887 -0.787695
v -0.135152 0.787695 -0.318887
v 0.135152 0.787695 -0.318887
v 0.135152 0.318887 -0.787695
v -0.135152 -0.318887 0.787695
v -0.135152 -0.787695 0.318887
v 0.135152 -0.787695 0.318887
v 0.135152 -0.318887 0.787695
v 0.135152 0.318887 0.787695
v 0.135152 0.787695 0.318887
v -0.135152 0.787695 0.318887
v -0.135152 0.318887 0.787695
v 0.097754 -0.318887 -0.787695
v 0.097754 -0.787695 -0.318887
v 0.097754 0.787695 -0.318887
v 0.097754 0.318887 -0.787695
v 0.097754 -0.787695 0.318887
v 0.097754 -0.318887 0.787695
v 0.097754 0.318887 0.787695
v 0.097754 0.787695 0.318887
v -0.088966 -0.787695 -0.318887
v -0.088966 -0.318887 -0.787695
v -0.088966 0.318887 -0.787695
v -0.088966 0.787695 -0.318887
v -0.088966 -0.318887 0.787695
v -0.088966 -0.787695 0.318887
v -0.088966 0.787695 0.318887
v -0.088966 0.318887 0.787695
v 0.122594 -0.280996 0.089005
v 0.122594 0.280996 0.089005
v 0.122594 -0.280996 -0.089005
v 0.122594 0.280996 -0.089005
v 0.068009 -0.280996 0.089005
v 0.068009 0.280996 0.089005
v 0.068009 -0.280996 -0.089005
v 0.068009 0.280996 -0.089005
v 0.122594 -0.280996 -0.235339
v 0.122594 0.280996 -0.235339
v 0.122594 -0.280996 -0.413349
v 0.122594 0.280996 -0.413349
v 0.068009 -0.280996 -0.235339
v 0.068009 0.280996 -0.235339
v 0.068009 -0.280996 -0.413349
v 0.068009 0.280996 -0.413349
v 0.122594 -0.280996 0.423182
v 0.122594 0.280996 0.423182
v 0.122594 -0.280996 0.245172
v 0.122594 0.280996 0.245172
v 0.068009 -0.280996 0.423182
v 0.068009 0.280996 0.423182
v 0.068009 -0.280996 0.245172
v 0.068009 0.280996 0.245172
v -0.066638 -0.280996 0.089005
v -0.066638 0.280996 0.089005
v -0.066638 -0.280996 -0.089005
v -0.066638 0.280996 -0.089005
v -0.121223 -0.280996 0.089005
v -0.121223 0.280996 0.089005
v -0.121223 -0.280996 -0.089005
v -0.121223 0.280996 -0.089005
v -0.066638 -0.280996 -0.235339
v -0.066638 0.280996 -0.235339
v -0.066638 -0.280996 -0.413349
v -0.066638 0.280996 -0.413349
v -0.121223 -0.280996 -0.235339
v -0.121223 0.280996 -0.235339
v -0.121223 -0.280996 -0.413349
v -0.121223 0.280996 -0.413349
v -0.066638 -0.280996 0.423182
v -0.066638 0.280996 0.423182
v -0.066638 -0.280996 0.245172
v -0.066638 0.280996 0.245172
v -0.121223 -0.280996 0.423182
v -0.121223 0.280996 0.423182
v -0.121223 -0.280996 0.245172
v -0.121223 0.280996 0.245172
vt 0.449396 0.750000
vt 0.550604 0.750000
vt 0.550604 1.000000
vt 0.449396 1.000000
vt 0.449396 0.750000
vt 0.550604 0.750000
vt 0.625000 0.574396
vt 0.875000 0.574396
vt 0.875000 0.675604
vt 0.625000 0.675604
vt 0.550604 0.500000
vt 0.625000 0.500000
vt 0.625000 0.500000
vt 0.550604 0.500000
vt 0.449396 0.250000
vt 0.550604 0.250000
vt 0.449396 0.500000
vt 0.375000 0.574396
vt 0.125000 0.574396
vt 0.125000 0.500000
vt 0.375000 0.500000
vt 0.625000 0.250000
vt 0.125000 0.675604
vt 0.375000 0.675604
vt 0.375000 0.750000
vt 0.125000 0.750000
vt 0.625000 0.750000
vt 0.625000 1.000000
vt 0.375000 0.675604
vt 0.375000 0.574396
vt 0.375000 0.574396
vt 0.375000 0.675604
vt 0.550604 1.000000
vt 0.625000 1.000000
vt 0.625000 1.000000
vt 0.550604 1.000000
vt 0.625000 0.675604
vt 0.625000 0.574396
vt 0.375000 0.500000
vt 0.125000 0.750000
vt 0.125000 0.675604
vt 0.449396 0.500000
vt 0.125000 0.574396
vt 0.125000 0.500000
vt 0.375000 0.750000
vt 0.449396 1.000000
vt 0.550604 0.250000
vt 0.625000 0.250000
vt 0.875000 0.574396
vt 0.875000 0.675604
vt 0.625000 0.750000
vt 0.449396 0.250000
vt 0.449396 0.500000
vt 0.550604 0.500000
vt 0.625000 0.574396
vt 0.625000 0.675604
vt 0.550604 0.750000
vt 0.449396 0.750000
vt 0.375000 0.750000
vt 0.625000 0.500000
vt 0.625000 0.750000
vt 0.375000 0.500000
vt 0.375000 0.074396
vt 0.449396 0.000000
vt 0.550604 0.000000
vt 0.625000 0.074396
vt 0.625000 0.175604
vt 0.550604 0.250000
vt 0.449396 0.250000
vt 0.375000 0.175604
vt 0.125000 0.574396
vt 0.125000 0.500000
vt 0.449396 1.000000
vt 0.125000 0.675604
vt 0.125000 0.750000
vt 0.625000 0.250000
vt 0.875000 0.574396
vt 0.875000 0.675604
vt 0.375000 0.000000
vt 0.625000 0.000000
vt 0.625000 0.250000
vt 0.375000 0.250000
vt 0.625000 0.500000
vt 0.375000 0.500000
vt 0.625000 0.750000
vt 0.375000 0.750000
vt 0.625000 1.000000
vt 0.375000 1.000000
vt 0.125000 0.500000
vt 0.125000 0.750000
vt 0.875000 0.500000
vt 0.875000 0.750000
vt 0.375000 0.000000
vt 0.625000 0.000000
vt 0.625000 0.250000
vt 0.375000 0.250000
vt 0.625000 0.500000
vt 0.375000 0.500000
vt 0.625000 0.750000
vt 0.375000 0.750000
vt 0.625000 1.000000
vt 0.375000 1.000000
vt 0.125000 0.500000
vt 0.125000 0.750000
vt 0.875000 0.500000
vt 0.875000 0.750000
vt 0.375000 0.000000
vt 0.625000 0.000000
vt 0.625000 0.250000
vt 0.375000 0.250000
vt 0.625000 0.500000
vt 0.375000 0.500000
vt 0.625000 0.750000
vt 0.375000 0.750000
vt 0.625000 1.000000
vt 0.375000 1.000000
vt 0.125000 0.500000
vt 0.125000 0.750000
vt 0.875000 0.500000
vt 0.875000 0.750000
vt 0.375000 0.000000
vt 0.625000 0.000000
vt 0.625000 0.250000
vt 0.375000 0.250000
vt 0.625000 0.500000
vt 0.375000 0.500000
vt 0.625000 0.750000
vt 0.375000 0.750000
vt 0.625000 1.000000
vt 0.375000 1.000000
vt 0.125000 0.500000
vt 0.125000 0.750000
vt 0.875000 0.500000
vt 0.875000 0.750000
vt 0.375000 0.000000
vt 0.625000 0.000000
vt 0.625000 0.250000
vt 0.375000 0.250000
vt 0.625000 0.500000
vt 0.375000 0.500000
vt 0.625000 0.750000
vt 0.375000 0.750000
vt 0.625000 1.000000
vt 0.375000 1.000000
vt 0.125000 0.500000
vt 0.125000 0.750000
vt 0.875000 0.500000
vt 0.875000 0.750000
vt 0.375000 0.000000
vt 0.625000 0.000000
vt 0.625000 0.250000
vt 0.375000 0.250000
vt 0.625000 0.500000
vt 0.375000 0.500000
vt 0.625000 0.750000
vt 0.375000 0.750000
vt 0.625000 1.000000
vt 0.375000 1.000000
vt 0.125000 0.500000
vt 0.125000 0.750000
vt 0.875000 0.500000
vt 0.875000 0.750000
vn 0.0000 0.0000 1.0000
vn 0.9856 0.0000 -0.1691
vn 0.0000 1.0000 0.0000
vn 0.9854 -0.1204 0.1204
vn 0.0000 0.0000 -1.0000
vn 0.0000 -0.7071 -0.7071
vn 0.0000 0.7071 -0.7071
vn 0.0000 -0.7071 0.7071
vn 0.0000 0.7071 0.7071
vn 0.0000 -1.0000 0.0000
vn -0.9854 -0.1204 -0.1204
vn 0.9856 -0.1691 0.0000
vn 0.9854 0.1204 0.1204
vn -0.9854 0.1204 -0.1204
vn 0.9856 0.0000 0.1691
vn -0.9856 0.1691 0.0000
vn -0.9854 0.1204 0.1204
vn 0.9856 0.1691 0.0000
vn 0.9854 0.1204 -0.1204
vn -0.9856 0.0000 -0.1691
vn -0.9854 -0.1204 0.1204
vn -0.9856 -0.1691 0.0000
vn 0.9854 -0.1204 -0.1204
vn -0.9856 0.0000 0.1691
vn 1.0000 0.0000 0.0000
vn -1.0000 -0.0000 0.0000
usemtl None
s off
f 9/1/1 12/2/1 3/3/1 2/4/1
f 12/2/2 9/1/2 28/5/2 29/6/2
f 16/7/3 7/8/3 4/9/3 11/10/3
f 15/11/4 16/12/4 23/13/4 24/14/4
f 5/15/5 8/16/5 15/11/5 14/17/5
f 13/18/6 6/19/6 5/20/6 14/21/6
f 7/22/7 16/12/7 15/11/7 8/16/7
f 1/23/8 10/24/8 9/25/8 2/26/8
f 11/27/9 4/28/9 3/3/9 12/2/9
f 6/19/10 13/18/10 10/24/10 1/23/10
f 27/29/3 18/30/3 34/31/3 37/32/3
f 32/33/6 31/34/6 47/35/6 48/36/6
f 3/3/11 4/28/11 31/34/11 32/33/11
f 16/7/12 11/10/12 30/37/12 23/38/12
f 13/18/13 14/21/13 17/39/13 18/30/13
f 1/23/14 2/26/14 25/40/14 26/41/14
f 14/17/15 15/11/15 24/14/15 17/42/15
f 6/19/16 1/23/16 26/41/16 19/43/16
f 5/20/17 6/19/17 19/43/17 20/44/17
f 10/24/18 13/18/18 18/30/18 27/29/18
f 9/25/19 10/24/19 27/29/19 28/45/19
f 2/4/20 3/3/20 32/33/20 25/46/20
f 7/22/21 8/16/21 21/47/21 22/48/21
f 4/9/22 7/8/22 22/49/22 31/50/22
f 11/27/23 12/2/23 29/6/23 30/51/23
f 8/16/24 5/15/24 20/52/24 21/47/24
f 34/31/25 33/53/25 36/54/25 35/55/25 40/56/25 39/57/25 38/58/25 37/32/25
f 28/45/7 27/29/7 37/32/7 38/59/7
f 23/38/10 30/37/10 40/56/10 35/55/10
f 24/14/8 23/13/8 35/60/8 36/54/8
f 30/51/6 29/6/6 39/57/6 40/61/6
f 17/42/1 24/14/1 36/54/1 33/53/1
f 29/6/5 28/5/5 38/58/5 39/57/5
f 18/30/9 17/39/9 33/62/9 34/31/9
f 46/63/26 45/64/26 48/65/26 47/66/26 44/67/26 43/68/26 42/69/26 41/70/26
f 21/47/1 20/52/1 42/69/1 43/68/1
f 20/44/9 19/43/9 41/71/9 42/72/9
f 25/46/5 32/33/5 48/36/5 45/73/5
f 19/43/3 26/41/3 46/74/3 41/71/3
f 26/41/7 25/40/7 45/75/7 46/74/7
f 22/48/8 21/47/8 43/68/8 44/76/8
f 31/50/10 22/49/10 44/77/10 47/78/10
f 49/79/26 50/80/26 52/81/26 51/82/26
f 51/82/1 52/81/1 56/83/1 55/84/1
f 55/84/25 56/83/25 54/85/25 53/86/25
f 53/86/5 54/85/5 50/87/5 49/88/5
f 51/89/3 55/84/3 53/86/3 49/90/3
f 56/83/10 52/91/10 50/92/10 54/85/10
f 57/93/26 58/94/26 60/95/26 59/96/26
f 59/96/1 60/95/1 64/97/1 63/98/1
f 63/98/25 64/97/25 62/99/25 61/100/25
f 61/100/5 62/99/5 58/101/5 57/102/5
f 59/103/3 63/98/3 61/100/3 57/104/3
f 64/97/10 60/105/10 58/106/10 62/99/10
f 65/107/26 66/108/26 68/109/26 67/110/26
f 67/110/1 68/109/1 72/111/1 71/112/1
f 71/112/25 72/111/25 70/113/25 69/114/25
f 69/114/5 70/113/5 66/115/5 65/116/5
f 67/117/3 71/112/3 69/114/3 65/118/3
f 72/111/10 68/119/10 66/120/10 70/113/10
f 73/121/26 74/122/26 76/123/26 75/124/26
f 75/124/1 76/123/1 80/125/1 79/126/1
f 79/126/25 80/125/25 78/127/25 77/128/25
f 77/128/5 78/127/5 74/129/5 73/130/5
f 75/131/3 79/126/3 77/128/3 73/132/3
f 80/125/10 76/133/10 74/134/10 78/127/10
f 81/135/26 82/136/26 84/137/26 83/138/26
f 83/138/1 84/137/1 88/139/1 87/140/1
f 87/140/25 88/139/25 86/141/25 85/142/25
f 85/142/5 86/141/5 82/143/5 81/144/5
f 83/145/3 87/140/3 85/142/3 81/146/3
f 88/139/10 84/147/10 82/148/10 86/141/10
f 89/149/26 90/150/26 92/151/26 91/152/26
f 91/152/1 92/151/1 96/153/1 95/154/1
f 95/154/25 96/153/25 94/155/25 93/156/25
f 93/156/5 94/155/5 90/157/5 89/158/5
f 91/159/3 95/154/3 93/156/3 89/160/3
f 96/153/10 92/161/10 90/162/10 94/155/10
